<?xml version="1.0" encoding="utf-8"?>
<!-- Generator: Adobe Illustrator 25.0.0, SVG Export Plug-In . SVG Version: 6.00 Build 0)  -->
<svg version="1.1" id="Layer_1" xmlns="http://www.w3.org/2000/svg" xmlns:xlink="http://www.w3.org/1999/xlink" x="0px" y="0px"
	 viewBox="0 0 32 32" style="enable-background:new 0 0 32 32;" xml:space="preserve">
<style type="text/css">
	.st0{fill-rule:evenodd;clip-rule:evenodd;fill:#FA5500;}
	.st1{fill-rule:evenodd;clip-rule:evenodd;fill:#FFFFFF;}
</style>
<desc>Created with Sketch.</desc>
<g id="Page-1">
	<g id="Post-Grid">
		<path id="Rectangle" class="st0" d="M5,0h22c2.8,0,5,2.2,5,5v22c0,2.8-2.2,5-5,5H5c-2.8,0-5-2.2-5-5V5C0,2.2,2.2,0,5,0z"/>
		<path id="Combined-Shape" class="st1" d="M17,9h6v6h-6V9z M19,11v2h2v-2H19z"/>
		<path id="Combined-Shape_2_" class="st1" d="M25,9h6v6h-6V9z M27,11v2h2v-2H27z"/>
		<path id="Combined-Shape_3_" class="st1" d="M17,17h6v6h-6V17z M19,19v2h2v-2H19z"/>
		<path id="Combined-Shape_4_" class="st1" d="M1,9h14v14H1V9z M3,11v10h10V11H3z"/>
		<path id="Combined-Shape_5_" class="st1" d="M25,17h6v6h-6V17z M27,19v2h2v-2H27z"/>
	</g>
</g>
</svg>
